<svg width="56" height="28" viewBox="0 0 56 28" fill="none" xmlns="http://www.w3.org/2000/svg">
<path d="M3.25195 0V22.3855H0V0H3.25195Z" fill="#282C2F"/>
<path d="M14.5411 6.71566C15.6806 6.71566 16.7091 6.9022 17.6267 7.27529C18.5544 7.64839 19.3409 8.17777 19.9863 8.86346C20.6417 9.54914 21.1459 10.381 21.4988 11.3591C21.8517 12.3372 22.0282 13.4364 22.0282 14.6565C22.0282 15.8766 21.8517 16.9757 21.4988 17.9538C21.1459 18.9319 20.6417 19.7688 19.9863 20.4646C19.3409 21.1503 18.5544 21.6797 17.6267 22.0528C16.7091 22.4259 15.6806 22.6124 14.5411 22.6124C13.3916 22.6124 12.353 22.4259 11.4253 22.0528C10.5077 21.6797 9.72119 21.1503 9.06576 20.4646C8.41033 19.7688 7.90615 18.9319 7.55322 17.9538C7.2003 16.9757 7.02384 15.8766 7.02384 14.6565C7.02384 13.4364 7.2003 12.3372 7.55322 11.3591C7.90615 10.381 8.41033 9.54914 9.06576 8.86346C9.72119 8.17777 10.5077 7.64839 11.4253 7.27529C12.353 6.9022 13.3916 6.71566 14.5411 6.71566ZM14.5411 20.0713C15.9327 20.0713 16.9662 19.6075 17.6418 18.6798C18.3275 17.742 18.6704 16.406 18.6704 14.6716C18.6704 12.9372 18.3275 11.6011 17.6418 10.6634C16.9662 9.71552 15.9327 9.24159 14.5411 9.24159C13.1294 9.24159 12.0807 9.71552 11.3951 10.6634C10.7094 11.6011 10.3665 12.9372 10.3665 14.6716C10.3665 16.406 10.7094 17.742 11.3951 18.6798C12.0807 19.6075 13.1294 20.0713 14.5411 20.0713Z" fill="#282C2F"/>
<path d="M31.1452 14.5355C32.1536 14.5355 32.9099 14.2783 33.414 13.7641C33.9182 13.2498 34.1703 12.5793 34.1703 11.7524C34.1703 10.9054 33.9182 10.2348 33.414 9.74073C32.9099 9.24663 32.1536 8.99959 31.1452 8.99959C30.147 8.99959 29.3907 9.24663 28.8764 9.74073C28.3723 10.2348 28.1202 10.9054 28.1202 11.7524C28.1202 12.1557 28.1857 12.5288 28.3168 12.8717C28.4479 13.2145 28.6395 13.512 28.8916 13.7641C29.1436 14.0061 29.4562 14.1977 29.8293 14.3388C30.2125 14.4699 30.6511 14.5355 31.1452 14.5355ZM35.6677 23.1418C35.6677 22.799 35.5669 22.5267 35.3652 22.325C35.1736 22.1133 34.9114 21.9519 34.5787 21.841C34.2459 21.72 33.8577 21.6343 33.414 21.5839C32.9704 21.5234 32.4964 21.483 31.9923 21.4629C31.4982 21.4326 30.9889 21.4074 30.4646 21.3873C29.9503 21.357 29.4512 21.3066 28.9672 21.236C28.4832 21.4881 28.0849 21.7906 27.7723 22.1435C27.4698 22.4964 27.3185 22.9048 27.3185 23.3687C27.3185 23.6712 27.3941 23.9535 27.5454 24.2157C27.7067 24.4779 27.9487 24.7047 28.2714 24.8963C28.6042 25.0879 29.0226 25.2392 29.5268 25.3501C30.0411 25.461 30.6562 25.5165 31.3721 25.5165C32.804 25.5165 33.8779 25.2946 34.5938 24.851C35.3097 24.4073 35.6677 23.8376 35.6677 23.1418ZM38.9348 7.5173V8.72733C38.9348 9.13067 38.6928 9.37772 38.2088 9.46847L36.666 9.7256C36.9282 10.3105 37.0592 10.9608 37.0592 11.6768C37.0592 12.433 36.908 13.1187 36.6055 13.7338C36.3131 14.3489 35.9047 14.8733 35.3803 15.3069C34.856 15.7405 34.2308 16.0732 33.5048 16.3051C32.7788 16.5371 31.9923 16.653 31.1452 16.653C30.8226 16.653 30.5049 16.6379 30.1923 16.6076C29.8898 16.5673 29.5924 16.5169 29.2999 16.4564C29.0075 16.6278 28.7907 16.8093 28.6495 17.0009C28.5084 17.1925 28.4378 17.3891 28.4378 17.5908C28.4378 17.9235 28.584 18.1706 28.8764 18.3319C29.1689 18.4933 29.552 18.6092 30.026 18.6798C30.51 18.7504 31.0595 18.7958 31.6746 18.8159C32.2897 18.8361 32.9149 18.8714 33.5502 18.9218C34.1854 18.9722 34.8106 19.0579 35.4257 19.1789C36.0408 19.2899 36.5853 19.4815 37.0592 19.7537C37.5433 20.0159 37.9315 20.3739 38.2239 20.8276C38.5163 21.2814 38.6625 21.8713 38.6625 22.5973C38.6625 23.2628 38.4962 23.9132 38.1634 24.5485C37.8306 25.1837 37.3466 25.7484 36.7114 26.2425C36.0862 26.7366 35.3198 27.1298 34.4123 27.4223C33.5048 27.7248 32.4712 27.876 31.3116 27.876C30.1621 27.876 29.1588 27.7651 28.3017 27.5433C27.4546 27.3214 26.7438 27.0189 26.169 26.6358C25.6043 26.2627 25.1808 25.8291 24.8985 25.335C24.6262 24.8409 24.4901 24.3266 24.4901 23.7922C24.4901 23.0662 24.717 22.446 25.1707 21.9318C25.6346 21.4175 26.2597 21.0142 27.0463 20.7217C26.6228 20.5201 26.2799 20.2428 26.0177 19.8898C25.7656 19.5369 25.6396 19.0731 25.6396 18.4983C25.6396 18.0445 25.806 17.5706 26.1387 17.0765C26.4715 16.5824 26.9706 16.164 27.6362 15.8211C26.8698 15.3976 26.2648 14.838 25.8211 14.1422C25.3774 13.4364 25.1556 12.6145 25.1556 11.6768C25.1556 10.9104 25.3018 10.2197 25.5942 9.6046C25.8967 8.9895 26.3152 8.46516 26.8496 8.03156C27.3841 7.59797 28.0143 7.26521 28.7403 7.03329C29.4764 6.80137 30.278 6.68541 31.1452 6.68541C32.4763 6.68541 33.6359 6.9627 34.6241 7.5173H38.9348Z" fill="#282C2F"/>
<path d="M48.5129 6.71566C49.6524 6.71566 50.6809 6.9022 51.5985 7.27529C52.5262 7.64839 53.3127 8.17777 53.958 8.86346C54.6135 9.54914 55.1177 10.381 55.4706 11.3591C55.8235 12.3372 56 13.4364 56 14.6565C56 15.8766 55.8235 16.9757 55.4706 17.9538C55.1177 18.9319 54.6135 19.7688 53.958 20.4646C53.3127 21.1503 52.5262 21.6797 51.5985 22.0528C50.6809 22.4259 49.6524 22.6124 48.5129 22.6124C47.3634 22.6124 46.3248 22.4259 45.3971 22.0528C44.4795 21.6797 43.693 21.1503 43.0375 20.4646C42.3821 19.7688 41.8779 18.9319 41.525 17.9538C41.1721 16.9757 40.9956 15.8766 40.9956 14.6565C40.9956 13.4364 41.1721 12.3372 41.525 11.3591C41.8779 10.381 42.3821 9.54914 43.0375 8.86346C43.693 8.17777 44.4795 7.64839 45.3971 7.27529C46.3248 6.9022 47.3634 6.71566 48.5129 6.71566ZM48.5129 20.0713C49.9045 20.0713 50.938 19.6075 51.6136 18.6798C52.2993 17.742 52.6421 16.406 52.6421 14.6716C52.6421 12.9372 52.2993 11.6011 51.6136 10.6634C50.938 9.71552 49.9045 9.24159 48.5129 9.24159C47.1012 9.24159 46.0525 9.71552 45.3668 10.6634C44.6812 11.6011 44.3383 12.9372 44.3383 14.6716C44.3383 16.406 44.6812 17.742 45.3668 18.6798C46.0525 19.6075 47.1012 20.0713 48.5129 20.0713Z" fill="#282C2F"/>
</svg>
